HIERARCHY
ROOT root
{
	OFFSET 0.000000 0.000000 0.000000
	CHANNELS 6 Xposition Yposition Zposition Zrotation Yrotation Xrotation
	JOINT lhip
	{
		OFFSET 0.058581 -0.082280 -0.017664
		CHANNELS 3 Zrotation Yrotation Xrotation
		JOINT lknee
		{
			OFFSET 0.043451 -0.386469 0.008037
			CHANNELS 3 Zrotation Yrotation Xrotation
			JOINT lankle
			{
				OFFSET -0.014790 -0.426874 -0.037428
				CHANNELS 3 Zrotation Yrotation Xrotation
				JOINT ltoe
				{
					OFFSET 0.041054 -0.060286 0.122042
					CHANNELS 3 Zrotation Yrotation Xrotation
					End Site
					{
						OFFSET 0.000000 0.000000 0.000000
					}
				}
			}
		}
	}
	JOINT rhip
	{
		OFFSET -0.060310 -0.090513 -0.013543
		CHANNELS 3 Zrotation Yrotation Xrotation
		JOINT rknee
		{
			OFFSET -0.043257 -0.383688 -0.004843
			CHANNELS 3 Zrotation Yrotation Xrotation
			JOINT rankle
			{
				OFFSET 0.019056 -0.420046 -0.034562
				CHANNELS 3 Zrotation Yrotation Xrotation
				JOINT rtoe
				{
					OFFSET -0.034840 -0.062106 0.130323
					CHANNELS 3 Zrotation Yrotation Xrotation
					End Site
					{
						OFFSET 0.000000 0.000000 0.000000
					}
				}
			}
		}
	}
	JOINT lowerback
	{
		OFFSET 0.004439 0.124404 -0.038385
		CHANNELS 3 Zrotation Yrotation Xrotation
		JOINT upperback
		{
			OFFSET 0.004488 0.137956 0.026820
			CHANNELS 3 Zrotation Yrotation Xrotation
			JOINT chest
			{
				OFFSET -0.002265 0.056032 0.002855
				CHANNELS 3 Zrotation Yrotation Xrotation
				JOINT lowerneck
				{
					OFFSET -0.013390 0.211636 -0.033468
					CHANNELS 3 Zrotation Yrotation Xrotation
					JOINT upperneck
					{
						OFFSET 0.010113 0.088937 0.050410
						CHANNELS 3 Zrotation Yrotation Xrotation
						End Site
						{
							OFFSET 0.000000 0.000000 0.000000
						}
					}
				}
				JOINT lclavicle
				{
					OFFSET 0.071702 0.114000 -0.018898
					CHANNELS 3 Zrotation Yrotation Xrotation
					JOINT lshoulder
					{
						OFFSET 0.122921 0.045205 -0.019046
						CHANNELS 3 Zrotation Yrotation Xrotation
						JOINT lelbow
						{
							OFFSET 0.255332 -0.015649 -0.022946
							CHANNELS 3 Zrotation Yrotation Xrotation
							JOINT lwrist
							{
								OFFSET 0.265709 0.012698 -0.007375
								CHANNELS 3 Zrotation Yrotation Xrotation
								End Site
								{
									OFFSET 0.000000 0.000000 0.000000
								}
							}
						}
					}
				}
				JOINT rclavicle
				{
					OFFSET -0.082954 0.112472 -0.023707
					CHANNELS 3 Zrotation Yrotation Xrotation
					JOINT rshoulder
					{
						OFFSET -0.113228 0.046853 -0.008472
						CHANNELS 3 Zrotation Yrotation Xrotation
						JOINT relbow
						{
							OFFSET -0.260127 -0.014369 -0.031269
							CHANNELS 3 Zrotation Yrotation Xrotation
							JOINT rwrist
							{
								OFFSET -0.269108 0.006794 -0.006027
								CHANNELS 3 Zrotation Yrotation Xrotation
								End Site
								{
									OFFSET 0.000000 0.000000 0.000000
								}
							}
						}
					}
				}
			}
		}
	}
}
MOTION
Frames: 13
Frame Time: 0.033333
-1.971625 0.357903 1.037516 90.664694 -0.110537 88.142010 2.713163 2.279978 4.757489 -3.966881 -8.803612 0.941417 1.341312 6.364566 -7.519680 0.000000 -0.000000 0.000000 -5.633498 -5.347477 -1.263153 1.222189 -2.428606 10.693475 6.785423 -8.767120 -6.571660 0.000000 -0.000000 0.000000 -1.454417 1.318592 9.685431 0.515605 -1.268620 -2.351186 1.176972 -1.645497 1.658208 5.693338 6.561411 -13.865780 0.583440 -0.404932 8.247275 -29.381889 4.842628 -0.833943 -52.139007 -7.711325 7.066874 5.847453 -20.249616 3.793198 -0.563058 -4.738417 -4.541933 31.926647 -0.329858 0.170346 51.783641 5.067976 13.827727 -11.202801 17.679458 -8.970592 4.061904 0.807320 -3.404442 
-1.970998 0.358082 1.037428 90.811742 -0.167088 88.187519 2.659063 2.249593 4.786448 -3.956737 -8.904393 0.845847 1.103955 6.390847 -7.536265 0.000000 -0.000000 0.000000 -5.722400 -5.598305 -1.294481 0.966951 -2.644064 10.517159 7.368892 -8.408515 -6.161655 0.000000 -0.000000 0.000000 -1.510531 1.491409 9.565792 0.466948 -1.127063 -2.304062 1.178078 -1.542233 1.746307 5.504948 6.484974 -13.800272 0.847738 -0.133764 7.711347 -29.484008 4.786849 -0.826176 -52.129930 -7.763906 7.240642 5.795363 -20.914877 3.750697 -0.427931 -4.762208 -4.806254 31.914359 -0.437656 0.224072 51.684905 4.968129 13.733773 -10.826121 17.262391 -8.890174 4.062855 0.770952 -3.510122 
-1.970603 0.358234 1.037319 90.909514 -0.189066 88.207062 2.586694 2.172757 4.807049 -3.879067 -8.923889 0.754478 0.983529 6.428661 -7.497251 0.000000 -0.000000 0.000000 -5.767690 -5.699140 -1.297735 0.793680 -2.911680 10.589711 7.721637 -8.074645 -5.988228 0.000000 -0.000000 0.000000 -1.447731 1.638483 9.575419 0.361961 -0.940129 -2.242119 1.184966 -1.510239 1.810336 5.473289 6.260671 -14.071378 0.984131 -0.307643 7.608534 -29.619657 4.613534 -0.708854 -52.177709 -8.012930 7.276455 6.012440 -21.838396 3.324410 -0.550021 -4.577889 -5.136443 31.802228 -0.347170 0.341795 51.782540 4.819971 13.605302 -10.752960 17.082130 -9.043169 4.223239 0.706769 -3.607269 
-1.970190 0.358184 1.037407 91.024261 -0.214275 88.075554 2.597725 2.218602 4.944899 -3.926272 -8.982812 0.754127 1.076967 6.373562 -7.550033 0.000000 -0.000000 0.000000 -5.812104 -5.746660 -1.092076 0.834536 -2.993131 10.527650 7.530841 -8.227820 -6.163619 0.000000 -0.000000 0.000000 -1.447476 1.741314 9.776508 0.297062 -0.700810 -2.175834 1.152760 -1.408595 1.793236 5.437964 6.247981 -14.150338 1.017296 -0.241124 7.669297 -29.771346 4.302909 -0.656151 -52.264912 -8.331871 7.422986 6.084300 -22.801850 3.122551 -0.178661 -4.642355 -5.524366 31.846982 -0.145438 0.651662 51.731904 4.663663 13.536123 -10.820199 16.982448 -9.285422 3.858625 0.625349 -3.699526 
-1.969820 0.358099 1.037484 91.167087 -0.187104 88.080764 2.640480 2.138094 4.973773 -3.903418 -8.903236 0.652334 1.043525 6.302796 -7.454451 0.000000 -0.000000 0.000000 -5.767080 -5.904740 -1.023003 0.771791 -3.035182 10.465116 7.316404 -8.047805 -6.215133 0.000000 -0.000000 0.000000 -1.444937 1.948985 9.737967 0.308408 -0.605078 -2.131969 1.191873 -1.473461 1.787171 5.223320 6.200029 -13.966942 1.115855 -0.119360 7.596850 -29.852987 4.010176 -0.416942 -52.495191 -8.583201 7.519170 6.278228 -23.340743 3.104486 -0.157541 -4.667020 -5.563797 31.808283 -0.129981 0.756861 51.646275 4.626016 13.403088 -10.654257 17.073866 -9.067464 4.310937 0.719579 -3.636823 
-1.969546 0.357841 1.037437 91.163898 -0.207183 88.040248 2.632791 2.122258 4.984307 -3.892006 -8.874633 0.685287 1.054476 6.248750 -7.447548 0.000000 -0.000000 0.000000 -5.796772 -5.910044 -0.978135 0.740356 -3.122747 10.536150 7.354244 -7.970390 -6.276514 0.000000 -0.000000 0.000000 -1.462537 2.028713 9.775977 0.264572 -0.538462 -1.966115 1.168543 -1.373554 1.768906 5.277118 6.147631 -14.085430 1.070258 -0.241404 7.719964 -29.765241 3.852723 -0.324629 -52.733544 -8.815781 7.765617 6.212411 -24.528618 3.314283 -0.169879 -4.990940 -5.935226 31.691017 0.091350 0.880215 51.777225 4.721292 13.407547 -10.706680 17.156531 -9.122801 4.400810 0.866836 -3.822337 
-1.969281 0.357456 1.037463 91.207147 -0.241115 88.049143 2.624592 2.044608 4.964793 -3.906363 -8.874668 0.659890 0.987941 6.244780 -7.409991 0.000000 -0.000000 0.000000 -5.780948 -5.794518 -0.953314 0.744573 -3.194088 10.459618 7.143808 -8.153488 -6.331479 0.000000 -0.000000 0.000000 -1.585059 2.023780 9.718960 0.254897 -0.538567 -1.799237 1.211131 -1.307910 1.741750 5.378786 6.106382 -14.111390 1.238127 -0.265059 7.616338 -29.744717 3.608507 -0.252463 -53.012579 -9.072882 7.948789 6.340509 -25.264410 3.224118 -0.036520 -4.879780 -6.317056 31.701643 0.296717 0.916471 51.771534 4.792392 13.480434 -10.851146 17.493764 -9.078443 4.154603 0.735327 -3.887472 
-1.969192 0.357338 1.037690 91.174080 -0.203250 88.056922 2.624423 2.044042 4.931798 -3.818912 -8.740471 0.724395 1.025158 6.172853 -7.415259 0.000000 -0.000000 0.000000 -5.751923 -5.851245 -0.987879 0.706304 -3.257580 10.543880 7.161658 -7.954923 -6.369850 0.000000 -0.000000 0.000000 -1.643385 2.112003 9.887752 0.269227 -0.422452 -1.979747 1.269564 -1.296416 1.762141 5.538520 6.022389 -13.970799 1.263389 -0.353000 7.677891 -29.695306 3.440035 -0.168226 -53.282022 -9.209633 8.287705 6.244842 -26.201468 3.738190 -0.044373 -5.410275 -6.290277 31.575626 0.346257 0.887826 51.810719 4.751312 13.482763 -11.016272 18.057276 -9.216085 4.241231 0.943472 -4.230838 
-1.968791 0.357019 1.037764 91.236811 -0.219068 88.148339 2.611512 1.917969 4.909894 -3.803817 -8.759326 0.612296 1.020068 6.246467 -7.534995 0.000000 -0.000000 0.000000 -5.759037 -5.943161 -1.048823 0.725461 -3.297789 10.622164 7.180512 -7.924689 -6.223617 0.000000 -0.000000 0.000000 -1.767694 2.169598 9.739206 0.324072 -0.501106 -1.962598 1.340402 -1.417896 1.802111 5.498058 5.903256 -13.824977 1.221400 -0.314555 7.602232 -29.685126 3.240335 -0.080132 -53.476766 -9.311092 8.476698 6.312411 -27.009397 3.861159 -0.101404 -5.357849 -6.550922 31.384182 0.441809 0.896536 51.888394 5.110880 13.460186 -10.944211 18.567413 -9.098679 4.496513 1.144262 -4.339476 
-1.968141 0.356883 1.037594 91.116459 -0.186371 88.209316 2.645525 1.948900 4.848264 -3.793530 -8.607413 0.668423 1.046857 6.214293 -7.575731 0.000000 -0.000000 0.000000 -5.703788 -5.803679 -1.055929 0.753398 -3.239504 10.547109 7.276890 -8.059776 -6.209848 0.000000 -0.000000 0.000000 -1.747549 2.078470 9.610464 0.282900 -0.562810 -1.918044 1.226373 -1.367455 1.830321 5.581726 6.159462 -14.018564 1.254376 -0.240634 7.877163 -29.664036 3.193925 -0.131999 -53.447144 -9.438956 8.678793 6.068245 -27.844454 4.091993 0.236459 -5.546989 -6.572722 31.509254 0.543590 0.829458 51.885942 5.376448 13.631704 -11.321714 19.226413 -9.259642 4.062534 1.004596 -4.324212 
-1.967980 0.356719 1.037598 90.820981 -0.209476 88.289548 2.568084 1.973850 4.858992 -3.688582 -8.482899 0.604855 1.047490 6.289231 -7.487628 0.000000 -0.000000 0.000000 -5.721943 -5.860864 -1.238294 0.761006 -3.036727 10.638015 7.434906 -7.965350 -6.155252 0.000000 -0.000000 0.000000 -1.882583 2.172548 9.538749 0.277732 -0.516948 -1.903203 1.266295 -1.381191 1.802688 5.558809 6.370573 -14.145395 1.163216 -0.041838 8.108509 -29.683313 3.127866 -0.235702 -53.435911 -9.470671 8.809357 5.961475 -28.333256 4.234982 0.366097 -5.610294 -6.671691 31.601213 0.554156 0.776507 51.726065 5.635737 13.746515 -11.524511 20.009380 -9.414398 3.922357 1.176185 -4.336652 
-1.967571 0.356462 1.037575 90.727669 -0.128408 88.183312 2.706844 2.078686 5.014533 -3.729787 -8.471164 0.572517 0.976680 6.296390 -7.578600 0.000000 -0.000000 0.000000 -5.586551 -5.600813 -1.058561 0.748140 -3.156875 10.523891 7.267491 -8.055198 -6.263794 0.000000 -0.000000 0.000000 -1.858599 1.950506 9.778981 0.243748 -0.591197 -2.024626 1.203335 -1.315394 1.687397 5.597507 6.508432 -13.757600 1.228286 0.062864 8.357219 -29.558081 3.161569 -0.280026 -53.485142 -9.466106 8.834493 5.905001 -28.553194 4.349524 0.506733 -5.551953 -6.637420 31.558960 0.630581 0.676414 51.808381 5.854525 13.823936 -11.570939 20.500103 -9.388652 3.817357 1.286400 -4.503989 
-1.967098 0.356350 1.037387 90.526700 -0.127957 88.153166 2.730022 2.066618 5.115008 -3.748963 -8.375083 0.568156 0.981890 6.326076 -7.515604 0.000000 -0.000000 0.000000 -5.604015 -5.641498 -1.051305 0.814622 -2.989035 10.605016 6.910318 -8.112557 -6.417044 0.000000 -0.000000 0.000000 -1.909759 1.977535 9.757655 0.257392 -0.640455 -1.844113 1.184988 -1.355513 1.572731 5.689906 6.529451 -13.774491 1.165068 0.073741 8.499428 -29.637657 2.991652 -0.246605 -53.367795 -9.536005 8.774801 5.942607 -28.527334 4.109921 0.610860 -5.584260 -6.713613 31.543537 0.752023 0.641739 51.799550 6.006223 13.945477 -11.734561 21.260316 -9.390622 3.644644 1.221910 -4.594893 
